HIERARCHY
ROOT Hips
{
  OFFSET 1.44925e-005 102.336 -0.101585
  CHANNELS 6 Xposition Yposition Zposition Zrotation Xrotation Yrotation
  JOINT LeftUpLeg
  {
    OFFSET 8.9458 -8.66707 0.101652
    CHANNELS 3 Zrotation Xrotation Yrotation
    JOINT LeftLeg
    {
      OFFSET 0 -44.4227 1.3727
      CHANNELS 3 Zrotation Xrotation Yrotation
      JOINT LeftFoot
      {
        OFFSET -0.253549 -42.0924 -1.46059
        CHANNELS 3 Zrotation Xrotation Yrotation
        JOINT LeftToes
        {
          OFFSET -0.04 -4.41509 8.4991
          CHANNELS 3 Zrotation Xrotation Yrotation
          End Site
          {
            OFFSET 0.08 -0.047448 9.77979
          }
        }
      }
    }
  }
  JOINT Spine
  {
    OFFSET 0 11.8905 0
    CHANNELS 3 Zrotation Xrotation Yrotation
    JOINT Spine1
    {
      OFFSET 0 25.6574 0.127663
      CHANNELS 3 Zrotation Xrotation Yrotation
      JOINT RightShoulder
      {
        OFFSET -8.99 -0.362252 -0.22
        CHANNELS 3 Zrotation Xrotation Yrotation
        JOINT RightArm
        {
          OFFSET -10.2827 -0.00338 0.322123
          CHANNELS 3 Zrotation Xrotation Yrotation
          JOINT RightForeArm
          {
            OFFSET -26.364 0.099144 -1.42434
            CHANNELS 3 Zrotation Xrotation Yrotation
            JOINT RightHand
            {
              OFFSET -22.0324 0.085362 1.02216
              CHANNELS 3 Zrotation Xrotation Yrotation
              End Site
              {
                OFFSET -13.3284 -0.6 1.50291
              }
            }
          }
        }
      }
      JOINT LeftShoulder1
      {
        OFFSET 8.99 -0.362252 -0.22
        CHANNELS 3 Zrotation Xrotation Yrotation
        JOINT LeftArm
        {
          OFFSET 10.2827 -0.00337999 0.322123
          CHANNELS 3 Zrotation Xrotation Yrotation
          JOINT LeftForeArm
          {
            OFFSET 26.2597 0.099144 -1.42434
            CHANNELS 3 Zrotation Xrotation Yrotation
            JOINT LeftHand
            {
              OFFSET 22.0902 0.085362 1.02216
              CHANNELS 3 Zrotation Xrotation Yrotation
              End Site
              {
                OFFSET 13.419 -0.6 1.50291
              }
            }
          }
        }
      }
      JOINT Head
      {
        OFFSET 0 8.73416 0.011341
        CHANNELS 3 Zrotation Xrotation Yrotation
        End Site
        {
          OFFSET -0.29 12.7742 2.51395
        }
      }
    }
  }
  JOINT RightUpLeg
  {
    OFFSET -8.9458 -8.66707 0.101652
    CHANNELS 3 Zrotation Xrotation Yrotation
    JOINT RightLeg
    {
      OFFSET 0 -44.4227 1.3727
      CHANNELS 3 Zrotation Xrotation Yrotation
      JOINT RightFoot
      {
        OFFSET 0.253549 -42.0924 -1.46059
        CHANNELS 3 Zrotation Xrotation Yrotation
        JOINT RightToes
        {
          OFFSET 0.04 -4.41509 8.4991
          CHANNELS 3 Zrotation Xrotation Yrotation
          End Site
          {
            OFFSET -0.08 -0.137448 9.77979
          }
        }
      }
    }
  }
}
MOTION
Frames:	10
Frame Time:	0.0333333
32.7984 97.4 0.517761 -10.6467 4.8172 -89.3801 5.64582 -32.144 0.373383 177.596 69.9951 -161.406 -6.5168 -6.32115 0.0999198 -1.29914e-009 8.75236e-006 -1.47081e-008 29.7066 18.7363 4.97714 -22.8857 -2.53998 14.3938 16.9635 1.24893 0.853401 48.0216 -36.1928 84.6187 11.0646 52.8237 -7.44805 -12.8477 8.7317 5.83067 -40.3422 3.17592 -3.30052 -24.058 -0.667373 27.1957 7.22278 35.959 -29.7033 5.82328 9.61819 -0.917488 1.91161 -3.13154 -31.9835 7.43152 -8.79885 -5.68907 2.04893 30.3406 -19.7602 -1.58524 -16.6295 -0.358577 0.0462048 0.000530889 0.662642 
29.6188 98.076 0.38817 -11.3407 4.25906 -90.6193 4.14224 -37.3937 -0.273485 177.887 67.6114 -162.281 -6.80235 -9.02415 -0.0433705 -1.29914e-009 8.75236e-006 -1.47081e-008 29.9755 19.6557 6.28695 -24.2365 -2.34037 16.1307 15.1918 1.19464 0.927276 51.4101 -37.2599 89.6268 12.378 52.6074 -12.1293 -12.4232 8.86345 4.92779 -38.5431 3.0083 -3.21416 -22.3763 -1.00734 35.9977 2.91912 31.9521 -24.4575 5.82328 9.61819 -0.917488 1.84847 -2.64266 -33.8748 6.64023 -4.76467 -5.33329 2.54436 28.3766 -18.8154 -1.10267 -17.6096 -0.336536 0.0462048 0.000530889 0.662642 
26.4276 98.6935 0.232899 -11.9839 3.78434 -91.2373 2.62463 -41.6546 -1.3953 177.875 67.9228 -162.376 -7.41263 -11.9256 -0.224549 -1.29914e-009 8.75236e-006 -1.47081e-008 29.4505 19.9742 7.28662 -24.4274 -2.07319 17.0477 13.9977 1.08212 0.623821 53.8307 -37.6496 92.7541 10.4946 51.07 -10.7471 -11.9404 8.94688 4.51343 -36.2504 2.78625 -3.06886 -18.9641 -3.89384 43.7552 -0.580796 32.8805 -19.6591 5.82328 9.61819 -0.917488 1.88199 -2.25122 -34.94 5.81122 -0.846486 -5.89205 2.82217 26.3409 -17.2575 -0.467552 -18.1352 -0.285972 0.0462048 0.000530889 0.662642 
23.3014 99.1077 0.098386 -12.4177 3.59019 -91.7455 1.79448 -44.8671 -2.15473 177.561 70.7618 -161.7 -8.26011 -13.9204 -0.389771 -1.29914e-009 8.75236e-006 -1.47081e-008 28.5966 19.7699 8.14312 -23.7067 -1.67455 17.4888 13.3303 0.994229 0.315918 53.2423 -37.7736 93.507 10.6545 50.859 -10.8003 -11.4816 8.94239 4.994 -34.6549 2.63606 -2.96445 -14.3287 -6.78952 50.4942 -3.34351 37.3102 -15.306 5.82328 9.61819 -0.917488 1.5571 -1.96191 -35.2097 5.30387 2.58338 -6.68115 2.93596 24.7223 -15.5507 -0.0793295 -18.6669 -0.253722 0.0462048 0.000530889 0.662642 
20.3073 99.3703 -0.0597726 -12.8406 3.3866 -92.262 1.26061 -46.6893 -2.44064 176.629 75.9638 -160.303 -8.5917 -14.9178 -0.479627 -1.29914e-009 8.75236e-006 -1.47081e-008 27.3509 19.3729 8.82225 -22.5981 -0.935398 17.66 12.9708 0.946535 0.139566 51.4714 -37.6921 93.3876 11.7784 52.3801 -11.4283 -11.475 8.88686 5.60546 -34.134 2.59501 -2.94709 -10.8038 -8.27507 55.2837 -5.68791 42.6011 -11.2606 5.82328 9.61819 -0.917488 0.906523 -2.05079 -34.8839 4.89751 5.88221 -7.2743 2.94354 23.1721 -14.1957 0.216866 -19.3806 -0.227702 0.0462048 0.000530889 0.662642 
17.4619 99.5497 -0.256244 -13.1682 3.02257 -92.629 0.62436 -47.0893 -2.51052 172.879 83.3646 -156.745 -8.71122 -15.9704 -0.564497 -1.29914e-009 8.75236e-006 -1.47081e-008 25.9668 18.9964 9.22414 -21.8322 -0.159561 17.6163 12.795 0.90036 -0.0635805 50.898 -37.299 93.5918 12.2913 52.8976 -11.706 -11.8457 8.85762 5.542 -34.103 2.59982 -2.96402 -8.95351 -9.38219 57.6681 -7.86736 47.6873 -7.52532 5.82328 9.61819 -0.917488 0.481492 -2.51838 -34.3135 4.44707 8.89944 -7.66825 2.81452 21.6729 -13.0568 1.06949 -20.1242 -0.135694 0.0462048 0.000530889 0.662642 
14.6902 99.5841 -0.439032 -13.1603 2.77101 -92.8304 0.34588 -46.0845 -2.1728 14.9749 86.9485 0.103375 -9.23737 -16.9229 -0.676737 -1.29914e-009 8.75236e-006 -1.47081e-008 25.0042 18.5073 9.36738 -21.6301 0.319639 17.4121 12.8923 0.857028 -0.295661 51.6903 -36.6909 93.847 11.9612 51.9685 -11.4721 -12.0289 8.88044 5.12123 -34.1554 2.60766 -2.97491 -9.04621 -10.5488 57.956 -9.07941 50.6759 -5.4053 5.82328 9.61819 -0.917488 0.500404 -3.10397 -33.6623 4.19216 11.2271 -7.83091 2.59992 20.6498 -12.1226 2.2815 -20.8194 0.00903005 0.0462048 0.000530889 0.662642 
11.9561 99.5177 -0.582119 -12.812 2.75621 -93.0527 0.642456 -43.5219 -1.24455 2.94092 75.4169 11.2192 -9.67037 -16.8327 -0.705499 -1.29914e-009 8.75236e-006 -1.47081e-008 24.4252 17.627 9.42512 -21.6533 0.815465 17.1758 13.3921 0.857516 -0.36532 52.7695 -36.1353 93.2872 11.5843 51.18 -11.3571 -12.2251 8.87068 5.0358 -34.3375 2.62522 -2.98871 -11.2065 -11.7426 56.5948 -8.12768 50.6507 -6.56951 5.82328 9.61819 -0.917488 0.656765 -3.60966 -32.7895 4.20643 13.1692 -7.79429 2.43219 19.6153 -11.5189 2.95884 -21.3703 0.100101 0.0462048 0.000530889 0.662642 
9.21976 99.454 -0.676295 -12.2238 2.82312 -93.3863 1.0242 -39.6094 -0.0632631 1.57726 62.1572 13.0565 -9.45141 -15.7757 -0.604199 -1.29914e-009 8.75236e-006 -1.47081e-008 23.7547 16.2216 9.46487 -21.496 1.59745 16.8731 14.1454 0.895793 -0.285432 54.4088 -35.5718 91.609 10.2633 49.8324 -9.77812 -12.5636 8.81471 5.2906 -34.6017 2.64976 -3.00613 -15.7833 -12.6719 53.735 -5.15512 47.4124 -10.7756 5.82328 9.61819 -0.917488 0.698559 -3.84514 -31.3823 4.22129 15.1491 -7.71236 2.39639 17.997 -10.9446 3.30728 -21.8585 0.155119 0.0462048 0.000530889 0.662642 
6.31518 99.2619 -0.66273 -11.4705 3.01591 -93.7507 1.30895 -35.0285 1.23216 1.24856 49.001 15.6621 -9.06498 -14.6692 -0.491791 -1.29914e-009 8.75236e-006 -1.47081e-008 23.1013 14.4593 9.2954 -21.0984 2.17893 16.2458 15.1925 0.93988 -0.224352 57.7574 -34.8891 88.9455 5.88587 45.1102 -1.34014 -11.9433 8.8777 5.23193 -34.8758 2.67086 -3.01326 -22.5072 -12.8533 49.3039 -1.50013 41.2527 -16.1826 5.82328 9.61819 -0.917488 0.678156 -3.63287 -29.2304 4.11156 16.8642 -7.76369 2.46013 16.8407 -9.79735 4.35977 -22.5858 0.314729 0.0462048 0.000530889 0.662642 
